# xmcd
#
# Track frame offsets: 
#        150
#        16063
#        33753
#        53094
#        72776
#        91740
#        113529
#        132887
#        148222
#        165037
#
# Disc length: 2467 seconds
#
# Revision: 0
# Processed by: cddbd v1.5.2PL0 Copyright (c) Steve Scherf et al.
# Submitted via: ExactAudioCopy v0.99pb3
#
DISCID=6d09a10a
DTITLE=The Iron Horse - Pickin On Modest Mouse
DYEAR=1900
DGENRE=Bluegrass
TTITLE0=Polar Opposite
TTITLE1=Dark Center of the Universe
TTITLE2=Float On
TTITLE3=Ocean Breathes Salty
TTITLE4=Trailer Trash
TTITLE5=Gravity Rides Everything
TTITLE6=Interstate 8
TTITLE7=A Different City
TTITLE8=The World at Large
TTITLE9=3rd Planet
EXTD=
EXTT0=
EXTT1=
EXTT2=
EXTT3=
EXTT4=
EXTT5=
EXTT6=
EXTT7=
EXTT8=
EXTT9=
PLAYORDER=
